#!OML:ASF F:\VICON\USERDATA\INSTALL\rory3\rory3.ASF
:FULLY-SPECIFIED
:DEGREES
797
root 0.489659 34.6483 -3.55899 -177.822 30.6324 184.204
lowerback 4.7946 -1.84849 -1.65685
upperback -1.04306 -2.51593 1.29906
thorax -3.63393 -1.19902 2.46506
lowerneck -41.4246 -3.86034 -49.7859
upperneck 40.4355 16.9045 33.6085
head 12.3128 6.48874 28.1868
rclavicle 1.35702e-014 -5.56597e-015
rhumerus -11.3507 45.0235 -95.3343
rradius 63.9081
rwrist -11.3
rhand -30.969 -3.75926
rfingers 7.12502
rthumb -4.25318 -33.6965
lclavicle 1.35702e-014 -5.56597e-015
lhumerus -53.0489 -2.65339 78.6412
lradius 70.325
lwrist 19.454
lhand -42.0291 20.389
lfingers 7.12502
lthumb -14.9232 49.8315
rfemur -10.67 22.1938 22.1616
rtibia 30.3553
rfoot -8.71145 -0.700029
rtoes -16.86
lfemur -3.8704 10.4798 -21.4998
ltibia 29.162
lfoot -21.0399 28.835
ltoes -14.1529
798
root 0.503873 34.6456 -3.5619 -177.881 30.8626 184.117
lowerback 4.78478 -1.85567 -1.7811
upperback -1.01548 -2.53676 1.22744
thorax -3.59668 -1.20877 2.46115
lowerneck -41.7599 -3.8419 -49.5955
upperneck 40.5509 17.0046 33.6535
head 12.3677 6.54137 28.2589
rclavicle -4.23241e-014 7.95139e-015
rhumerus -11.2766 45.2074 -95.5202
rradius 63.8542
rwrist -10.8414
rhand -30.7232 -4.01711
rfingers 7.12502
rthumb -4.01588 -33.959
lclavicle -4.23241e-014 7.95139e-015
lhumerus -53.2994 -2.67659 78.4703
lradius 70.3027
lwrist 19.6979
lhand -42.2782 20.1768
lfingers 7.12502
lthumb -15.1631 49.6012
rfemur -10.639 22.3676 22.1162
rtibia 30.3564
rfoot -8.71887 -0.624404
rtoes -16.5289
lfemur -3.81426 10.7739 -21.5226
ltibia 29.1887
lfoot -21.1283 28.6962
ltoes -13.9955
799
root 0.516225 34.6454 -3.56671 -177.839 31.1025 184.13
lowerback 4.80089 -1.93239 -1.85601
upperback -0.985031 -2.64279 1.25631
thorax -3.56386 -1.26041 2.54056
lowerneck -42.4733 -3.92448 -49.4161
upperneck 40.8279 17.2125 33.72
head 12.4994 6.6075 28.426
rclavicle -8.55442e-014 9.54166e-015
rhumerus -11.009 45.7199 -95.5304
rradius 63.7359
rwrist -10.4307
rhand -30.3029 -4.10678
rfingers 7.12502
rthumb -3.60999 -34.056
lclavicle -8.55442e-014 9.54166e-015
lhumerus -53.5072 -2.3655 78.2773
lradius 70.2369
lwrist 19.8212
lhand -42.639 19.7256
lfingers 7.12502
lthumb -15.5107 49.1235
rfemur -10.6745 22.5253 22.1291
rtibia 30.3549
rfoot -8.68569 -0.539737
rtoes -16.2929
lfemur -3.80463 11.003 -21.4812
ltibia 29.2014
lfoot -21.2533 28.6372
ltoes -13.87
800
root 0.527827 34.6475 -3.57221 -177.737 31.3913 184.143
lowerback 4.8385 -1.9729 -1.91411
upperback -1.05616 -2.70089 1.26725
thorax -3.65236 -1.28589 2.5923
lowerneck -43.0547 -3.94734 -49.2053
upperneck 41.127 17.4141 33.7831
head 12.6257 6.67268 28.5848
rclavicle -7.80339e-014 0
rhumerus -10.9429 46.2072 -95.6591
rradius 63.6285
rwrist -10.125
rhand -30.1822 -4.02736
rfingers 7.12502
rthumb -3.49342 -33.9785
lclavicle -7.80339e-014 0
lhumerus -53.8364 -2.22846 78.0814
lradius 70.1817
lwrist 19.9989
lhand -42.9395 19.2577
lfingers 7.12502
lthumb -15.8001 48.6329
rfemur -10.7722 22.665 22.1007
rtibia 30.3045
rfoot -8.55008 -0.413189
rtoes -16.3109
lfemur -3.87872 11.1362 -21.5002
ltibia 29.2331
lfoot -21.3967 28.7516
ltoes -13.7088
801
root 0.538456 34.6475 -3.57581 -177.632 31.6585 184.155
lowerback 4.51909 -1.99538 -1.951
upperback -0.905178 -2.72786 1.2693
thorax -3.31276 -1.3057 2.59878
lowerneck -43.5066 -4.05582 -49.2415
upperneck 41.1421 17.5128 33.8787
head 12.6254 6.72438 28.6779
rclavicle 2.05707e-014 4.37326e-015
rhumerus -10.3261 46.7454 -95.3553
rradius 63.4675
rwrist -10.0819
rhand -30.3115 -3.66809
rfingers 7.12502
rthumb -3.61826 -33.6171
lclavicle 2.05707e-014 4.37326e-015
lhumerus -53.8988 -2.20505 77.9787
lradius 70.1947
lwrist 20.2414
lhand -43.3487 18.9378
lfingers 7.12502
lthumb -16.1941 48.2814
rfemur -10.8273 22.8181 22.0769
rtibia 30.2089
rfoot -8.49931 -0.325167
rtoes -16.1945
lfemur -3.97184 11.2749 -21.5268
ltibia 29.2855
lfoot -21.8241 28.7687
ltoes -12.8998
802
root 0.546856 34.6483 -3.57844 -177.473 31.8589 184.363
lowerback 4.56901 -2.05487 -1.77964
upperback -0.94824 -2.79458 1.33792
thorax -3.38616 -1.33956 2.5816
lowerneck -43.9604 -4.09008 -49.2009
upperneck 41.3741 17.7099 33.9946
head 12.6736 6.79881 28.836
rclavicle 4.3572e-014 2.78299e-015
rhumerus -10.0522 47.3083 -95.3143
rradius 63.2555
rwrist -10.0166
rhand -30.6403 -3.36903
rfingers 7.12502
rthumb -3.93582 -33.3124
lclavicle 4.3572e-014 2.78299e-015
lhumerus -54.2096 -2.17344 77.9101
lradius 70.146
lwrist 20.4455
lhand -43.5857 18.9525
lfingers 7.12502
lthumb -16.4223 48.2773
rfemur -10.8081 22.871 22.2631
rtibia 30.0947
rfoot -8.46052 -0.21546
rtoes -16.3042
lfemur -4.01993 11.2236 -21.3872
ltibia 29.3212
lfoot -22.5028 28.8158
ltoes -11.4062
803
root 0.553216 34.6519 -3.57883 -177.319 32.0392 184.52
lowerback 4.60507 -2.11029 -1.7068
upperback -0.967144 -2.86123 1.40912
thorax -3.42219 -1.37234 2.62108
lowerneck -44.4072 -4.12234 -49.1346
upperneck 41.5431 17.8808 34.076
head 12.714 6.86837 28.9476
rclavicle 7.45996e-015 -1.82882e-014
rhumerus -9.79978 47.7812 -95.2316
rradius 63.133
rwrist -9.75531
rhand -30.6853 -3.86121
rfingers 7.12502
rthumb -3.97921 -33.8038
lclavicle 7.45996e-015 -1.82882e-014
lhumerus -54.3702 -2.12843 77.8414
lradius 70.0266
lwrist 20.6297
lhand -43.6778 19.0046
lfingers 7.12502
lthumb -16.511 48.3221
rfemur -10.8536 22.849 22.3742
rtibia 29.9761
rfoot -8.39398 -0.0265945
rtoes -16.2778
lfemur -4.08865 11.041 -21.3116
ltibia 29.3303
lfoot -22.7201 29.0934
ltoes -11.2773
804
root 0.559257 34.6553 -3.58013 -177.322 32.2365 184.477
lowerback 4.68036 -2.15488 -1.80535
upperback -0.964349 -2.92836 1.39844
thorax -3.45367 -1.40356 2.67336
lowerneck -44.8945 -4.14112 -48.9448
upperneck 41.7393 18.0275 34.1179
head 12.8089 6.91902 29.0575
rclavicle 1.99728e-014 7.15625e-015
rhumerus -9.64317 48.2123 -95.2389
rradius 63.1259
rwrist -9.50902
rhand -30.5854 -4.12747
rfingers 7.12502
rthumb -3.88279 -34.0718
lclavicle 1.99728e-014 7.15625e-015
lhumerus -54.5645 -2.04837 77.6698
lradius 70.003
lwrist 20.8497
lhand -43.7728 18.9003
lfingers 7.12502
lthumb -16.6024 48.2101
rfemur -10.8439 22.8418 22.3231
rtibia 29.8679
rfoot -8.31083 0.176243
rtoes -16.347
lfemur -4.07202 10.9729 -21.3943
ltibia 29.3055
lfoot -22.2123 29.6106
ltoes -13.1545
805
root 0.565768 34.6561 -3.58585 -177.325 32.4917 184.486
lowerback 4.72932 -2.15108 -1.7993
upperback -0.983586 -2.92544 1.35872
thorax -3.50368 -1.40181 2.63165
lowerneck -45.1863 -4.10293 -48.7783
upperneck 41.8715 18.1416 34.1622
head 12.855 6.97331 29.1269
rclavicle -6.9879e-014 -1.19271e-015
rhumerus -9.58764 48.5659 -95.3037
rradius 63.0799
rwrist -9.41565
rhand -30.5073 -3.80664
rfingers 7.12502
rthumb -3.80734 -33.7524
lclavicle -6.9879e-014 -1.19271e-015
lhumerus -54.848 -2.13449 77.5232
lradius 70.1007
lwrist 21.1045
lhand -44.0395 18.9149
lfingers 7.12502
lthumb -16.8593 48.203
rfemur -10.8047 22.8882 22.3292
rtibia 29.794
rfoot -8.25543 0.362213
rtoes -16.4794
lfemur -3.98867 10.9614 -21.4405
ltibia 29.2483
lfoot -22.0756 29.9588
ltoes -13.7479
806
root 0.570804 34.6565 -3.5922 -177.333 32.7463 184.448
lowerback 4.70526 -2.13632 -1.81699
upperback -0.982189 -2.90879 1.31077
thorax -3.49122 -1.39411 2.58972
lowerneck -45.4448 -4.08583 -48.6738
upperneck 41.9783 18.241 34.2249
head 12.883 7.02239 29.2045
rclavicle -5.25272e-014 -1.07344e-014
rhumerus -9.41229 48.8571 -95.2824
rradius 62.9669
rwrist -9.35975
rhand -30.2642 -3.59723
rfingers 7.12502
rthumb -3.5726 -33.547
lclavicle -5.25272e-014 -1.07344e-014
lhumerus -55.0416 -2.26953 77.4057
lradius 70.0812
lwrist 21.2453
lhand -44.3308 18.995
lfingers 7.12502
lthumb -17.1396 48.259
rfemur -10.7932 22.8476 22.2764
rtibia 29.735
rfoot -8.24431 0.603535
rtoes -16.706
lfemur -3.92776 10.943 -21.5435
ltibia 29.1811
lfoot -22.2992 30.1712
ltoes -13.2629
807
root 0.577985 34.6563 -3.59413 -177.227 32.9763 184.464
lowerback 4.60831 -2.17721 -1.78898
upperback -0.951654 -2.96284 1.25333
thorax -3.40635 -1.42407 2.51311
lowerneck -45.9366 -4.12587 -48.4985
upperneck 42.1063 18.3409 34.3152
head 12.9611 7.06724 29.347
rclavicle -1.91913e-014 -4.37326e-015
rhumerus -9.08724 49.2228 -95.2828
rradius 62.8321
rwrist -9.2626
rhand -30.3801 -3.90061
rfingers 7.12502
rthumb -3.68453 -33.8485
lclavicle -1.91913e-014 -4.37326e-015
lhumerus -55.1627 -2.21901 77.146
lradius 70.0931
lwrist 21.3072
lhand -44.5787 19.0032
lfingers 7.12502
lthumb -17.3782 48.2464
rfemur -10.874 22.8882 22.2554
rtibia 29.6768
rfoot -8.24739 0.757311
rtoes -16.5982
lfemur -3.98689 10.9824 -21.5736
ltibia 29.1216
lfoot -22.3958 30.3464
ltoes -13.1132
808
root 0.586304 34.6571 -3.59882 -177.083 33.2141 184.581
lowerback 4.48488 -2.21389 -1.66702
upperback -0.898201 -3.00508 1.19771
thorax -3.28834 -1.45048 2.38298
lowerneck -46.4268 -4.15077 -48.2725
upperneck 42.1999 18.425 34.3614
head 13.0452 7.10781 29.4441
rclavicle -1.57692e-014 0
rhumerus -8.81585 49.574 -95.3124
rradius 62.745
rwrist -9.16175
rhand -30.7116 -4.15867
rfingers 7.12502
rthumb -4.00465 -34.1008
lclavicle -1.57692e-014 0
lhumerus -55.3097 -2.18555 76.8603
lradius 70.1201
lwrist 21.2702
lhand -44.7308 19.2192
lfingers 7.12502
lthumb -17.5246 48.4493
rfemur -10.9323 22.9924 22.3356
rtibia 29.629
rfoot -8.23552 0.909406
rtoes -16.5688
lfemur -3.99789 11.1038 -21.4901
ltibia 29.0598
lfoot -22.4541 30.4469
ltoes -13.3635
809
root 0.593568 34.6588 -3.60468 -177.06 33.4474 184.595
lowerback 4.46277 -2.23026 -1.67707
upperback -0.883783 -3.02841 1.16945
thorax -3.26079 -1.46284 2.35956
lowerneck -46.8003 -4.12373 -48.0917
upperneck 42.3539 18.5565 34.4161
head 13.1047 7.16573 29.5357
rclavicle -5.5624e-014 -1.19271e-014
rhumerus -8.71481 49.8719 -95.3674
rradius 62.7214
rwrist -9.17269
rhand -30.8506 -4.22144
rfingers 7.12502
rthumb -4.13889 -34.161
lclavicle -5.5624e-014 -1.19271e-014
lhumerus -55.5682 -2.28865 76.7882
lradius 70.0755
lwrist 20.8332
lhand -45.0739 19.7813
lfingers 7.12502
lthumb -17.8548 48.9817
rfemur -10.9009 23.053 22.3388
rtibia 29.5676
rfoot -8.18074 1.07051
rtoes -16.6109
lfemur -3.90318 11.1772 -21.5013
ltibia 28.9822
lfoot -22.5916 30.5265
ltoes -13.3821
